<svg width="32" height="32" viewBox="0 0 32 32" fill="none" xmlns="http://www.w3.org/2000/svg">
<g clip-path="url(#clip0_1_5)">
<path d="M0.0138039 15.999C0.0138039 11.9878 0.0443805 7.97657 9.71281e-05 3.96536C-0.0209902 2.02417 1.48148 0.320619 3.60814 0.038126C3.81479 0.0104493 4.02672 0.00281437 4.23548 0.00281437C10.4151 0.000905634 16.5948 -0.0010031 22.7733 0.00281437C24.6723 0.00376874 26.3139 1.15378 26.801 2.80771C26.9349 3.26103 26.8073 3.60938 26.4352 3.80407C26.0872 3.98635 25.6686 3.92814 25.3945 3.65996C25.2848 3.55307 25.2258 3.42423 25.1783 3.28585C24.7872 2.11579 23.9279 1.53839 22.5582 1.53649C19.9814 1.53267 17.4045 1.53553 14.8276 1.53553C11.3567 1.53553 7.8857 1.53267 4.41473 1.53649C3.06197 1.53839 2.12148 2.15587 1.79041 3.23526C1.71871 3.46718 1.70712 3.70481 1.70712 3.9415C1.70501 11.9754 1.7029 20.0102 1.70712 28.0441C1.70712 29.2428 2.39772 30.0865 3.57967 30.3861C3.87489 30.4606 4.17644 30.4653 4.47799 30.4653C10.4731 30.4663 16.4682 30.4491 22.4644 30.4768C24.2558 30.4854 25.2943 29.3258 25.269 27.9458C25.229 25.7565 25.2606 23.5662 25.2564 21.3759C25.2564 21.0428 25.4061 20.7995 25.7224 20.6506C26.0282 20.5065 26.335 20.5408 26.6133 20.7231C26.8569 20.8825 26.9497 21.1154 26.9476 21.3769C26.9328 23.7924 27.0266 26.2098 26.9043 28.6244C26.8137 30.4148 24.9169 31.9866 22.8925 31.9942C19.3034 32.0086 15.7144 31.999 12.1242 32C9.52102 32 6.91779 32.0019 4.31456 32C1.84524 31.9981 0.0148582 30.3413 0.0138039 28.1071C0.0116951 24.072 0.0138039 20.0369 0.0138039 16.0019V15.999Z" fill="white"/>
<path d="M16.04 25.244C16.1065 24.4615 16.1602 23.6655 16.2467 22.8734C16.2994 22.3828 16.525 21.94 16.796 21.5153C20.0182 16.4629 23.2371 11.4085 26.4614 6.35611C27.2817 5.07153 28.7156 4.72509 30.1306 5.45518C30.313 5.54871 30.4954 5.64224 30.6746 5.73959C31.9799 6.44487 32.3743 7.77239 31.6183 8.97108C30.6504 10.5057 29.6677 12.0337 28.6914 13.5645C26.4709 17.047 24.2441 20.5275 22.0341 24.0158C21.5786 24.7354 20.9934 25.3175 20.2111 25.7489C19.685 26.039 19.1831 26.3654 18.6633 26.6641C18.0792 26.9991 17.4698 27.0163 16.8783 26.6956C16.2868 26.375 16.0337 25.872 16.0421 25.2431L16.04 25.244ZM17.7386 25.3672C18.405 24.9692 18.9807 24.6237 19.5585 24.2801C19.9169 24.0673 20.2006 23.7915 20.4146 23.4575C23.0674 19.3002 25.7181 15.143 28.3772 10.9886C28.4963 10.8025 28.4383 10.7348 28.2591 10.6441C27.7098 10.3683 27.1615 10.0867 26.6269 9.78898C26.4045 9.66491 26.3043 9.67064 26.162 9.89491C23.545 14.0178 20.9175 18.1359 18.2901 22.253C18.1245 22.5117 17.9632 22.7789 17.9305 23.0728C17.8504 23.8048 17.805 24.5407 17.7386 25.3662V25.3672ZM30.3067 7.73708C30.2687 7.49754 30.1706 7.2704 29.9144 7.12915C29.6582 6.9879 29.402 6.84284 29.1342 6.72068C28.7009 6.52217 28.276 6.63288 28.0155 7.01367C27.7677 7.37538 27.5495 7.75426 27.2996 8.11501C27.1826 8.28394 27.2406 8.34979 27.4103 8.43568C27.9923 8.72867 28.5691 9.03312 29.1416 9.34138C29.2934 9.42345 29.3714 9.43013 29.4663 9.26789C29.6856 8.89092 29.9334 8.52825 30.1675 8.15891C30.2466 8.03485 30.294 7.89933 30.3067 7.73708V7.73708Z" fill="white"/>
<path d="M13.0667 12.2055C10.7408 12.2055 8.41593 12.2036 6.09 12.2074C5.74417 12.2074 5.4384 12.1434 5.2212 11.8791C4.8353 11.4086 5.14634 10.7567 5.80426 10.6594C5.90654 10.6441 6.01408 10.6499 6.11847 10.6499C10.783 10.6499 15.4464 10.6499 20.111 10.6499C20.7372 10.6499 21.1189 10.9085 21.1548 11.3513C21.1959 11.8571 20.8195 12.2017 20.1995 12.2036C18.6496 12.2083 17.0986 12.2055 15.5487 12.2055C14.721 12.2055 13.8934 12.2055 13.0657 12.2055H13.0667Z" fill="white"/>
<path d="M15.1565 6.07929C17.3232 6.07929 19.491 6.07929 21.6577 6.07929C21.8422 6.07929 22.0257 6.07452 22.1986 6.14419C22.5434 6.28257 22.7363 6.51449 22.7332 6.86283C22.73 7.21022 22.536 7.44118 22.1881 7.57383C22.0394 7.63014 21.8844 7.63682 21.7252 7.63682C17.3517 7.63587 12.9771 7.63682 8.60361 7.63587C8.04795 7.63587 7.67576 7.403 7.59458 7.01362C7.48703 6.50112 7.89823 6.08502 8.53613 6.08311C9.87623 6.07738 11.2153 6.0812 12.5554 6.0812C13.4221 6.0812 14.2888 6.0812 15.1565 6.0812V6.07929Z" fill="white"/>
<path d="M11.6549 15.2213C13.5211 15.2213 15.3874 15.2203 17.2536 15.2213C17.8029 15.2213 18.1762 15.4713 18.2363 15.8645C18.3048 16.315 18.0043 16.6901 17.5087 16.7664C17.4191 16.7798 17.3253 16.776 17.2336 16.776C13.5138 16.776 9.79501 16.776 6.07521 16.776C5.50269 16.776 5.12522 16.525 5.06618 16.1136C4.99237 15.604 5.38882 15.2232 6.01722 15.2222C7.8961 15.2175 9.77603 15.2203 11.6549 15.2203V15.2213Z" fill="white"/>
<path d="M10.1978 19.7917C11.5917 19.7917 12.9856 19.7878 14.3795 19.7936C15.0173 19.7955 15.3948 20.16 15.3252 20.684C15.2704 21.0915 14.9109 21.3454 14.3626 21.3463C12.5617 21.3492 10.7598 21.3473 8.95897 21.3473C7.99949 21.3473 7.03897 21.3492 6.07949 21.3473C5.45109 21.3454 5.06941 21.0543 5.06414 20.58C5.05887 20.0894 5.44266 19.7936 6.09742 19.7936C7.46493 19.7917 8.83244 19.7936 10.2 19.7936L10.1978 19.7917Z" fill="white"/>
<path d="M9.69178 25.9187C8.46977 25.9187 7.2467 25.9216 6.02469 25.9178C5.43741 25.9159 5.06206 25.6047 5.06311 25.139C5.06417 24.6742 5.43952 24.366 6.02997 24.365C7.96156 24.3612 9.89421 24.364 11.8258 24.364C12.3646 24.364 12.9034 24.3593 13.4422 24.365C14.0115 24.3717 14.3753 24.6714 14.3826 25.1256C14.39 25.598 14.0221 25.9149 13.4379 25.9178C12.1896 25.9235 10.9412 25.9197 9.69178 25.9197V25.9187Z" fill="white"/>
</g>
<defs>
<clipPath id="clip0_1_5">
<rect width="32" height="32" fill="white"/>
</clipPath>
</defs>
</svg>
