<svg width="44" height="44" viewBox="0 0 44 44" fill="none" xmlns="http://www.w3.org/2000/svg">
<path d="M21.75 0C9.73895 0 0 9.73895 0 21.75C0 33.7611 9.73895 43.5 21.75 43.5C33.7611 43.5 43.5 33.7611 43.5 21.75C43.5 9.73895 33.7611 0 21.75 0ZM21.75 39.8103C11.778 39.8103 3.68973 31.722 3.68973 21.75C3.68973 11.778 11.778 3.68973 21.75 3.68973C31.722 3.68973 39.8103 11.778 39.8103 21.75C39.8103 31.722 31.722 39.8103 21.75 39.8103Z" fill="white"/>
<path d="M27.1684 12.2689C25.7119 10.9921 23.7893 10.293 21.7503 10.293C19.7112 10.293 17.7887 10.9969 16.3322 12.2689C14.8175 13.5943 13.9824 15.3761 13.9824 17.284V17.653C13.9824 17.8666 14.1572 18.0414 14.3708 18.0414H16.7012C16.9148 18.0414 17.0896 17.8666 17.0896 17.653V17.284C17.0896 15.143 19.182 13.4001 21.7503 13.4001C24.3185 13.4001 26.411 15.143 26.411 17.284C26.411 18.7939 25.3429 20.1776 23.6874 20.8136C22.6581 21.2068 21.7843 21.8962 21.158 22.7992C20.522 23.7217 20.1919 24.8286 20.1919 25.9501V26.9939C20.1919 27.2075 20.3666 27.3823 20.5802 27.3823H22.9106C23.1242 27.3823 23.299 27.2075 23.299 26.9939V25.8918C23.3015 25.4205 23.446 24.9609 23.7136 24.5729C23.9812 24.1849 24.3595 23.8866 24.7992 23.7168C27.6636 22.6147 29.5133 20.0902 29.5133 17.284C29.5181 15.3761 28.6831 13.5943 27.1684 12.2689ZM19.8083 32.4314C19.8083 32.9464 20.0129 33.4403 20.3771 33.8045C20.7413 34.1687 21.2352 34.3733 21.7503 34.3733C22.2653 34.3733 22.7593 34.1687 23.1235 33.8045C23.4876 33.4403 23.6922 32.9464 23.6922 32.4314C23.6922 31.9163 23.4876 31.4224 23.1235 31.0582C22.7593 30.694 22.2653 30.4894 21.7503 30.4894C21.2352 30.4894 20.7413 30.694 20.3771 31.0582C20.0129 31.4224 19.8083 31.9163 19.8083 32.4314Z" fill="white"/>
</svg>
