<?xml version="1.0" encoding="UTF-8"?><svg id="a" xmlns="http://www.w3.org/2000/svg" viewBox="0 0 200 41"><defs><style>.b{fill:#fff;}.c{fill:#17357a;}.d{fill:#62d792;}</style></defs><path class="c" d="M33.83,5.05c-.25,0-.5,0-.75,0h.75Z"/><g><path class="b" d="M64.26,13.93V30.88h-4.51l-.5-1.2c-1.39,1.12-3.14,1.77-5.11,1.77-5.18,0-8.88-3.78-8.88-9.04s3.7-8.98,8.88-8.98c2,0,3.78,.67,5.18,1.82l.6-1.31h4.35Zm-5.55,8.48c0-2.2-1.61-3.85-3.79-3.85s-3.79,1.65-3.79,3.85,1.61,3.86,3.79,3.86,3.79-1.65,3.79-3.86Z"/><path class="b" d="M76.32,31.45c-5.43,0-9.35-3.81-9.35-9.05s3.9-8.98,9.37-8.98c4.76,0,8.33,3,8.97,7.51h-5.68c-.49-1.38-1.78-2.28-3.3-2.28-2.05,0-3.51,1.56-3.51,3.77s1.48,3.8,3.51,3.8c1.57,0,2.83-.96,3.32-2.47h5.73c-.66,4.6-4.28,7.7-9.05,7.7h0Z"/><path class="b" d="M105.92,13.93V30.88h-4.51l-.5-1.2c-1.39,1.12-3.14,1.77-5.11,1.77-5.18,0-8.88-3.78-8.88-9.04s3.7-8.98,8.88-8.98c2,0,3.78,.67,5.18,1.82l.6-1.31h4.35Zm-5.55,8.48c0-2.2-1.61-3.85-3.79-3.85s-3.79,1.65-3.79,3.85,1.61,3.86,3.79,3.86,3.79-1.65,3.79-3.86Z"/><path class="b" d="M127.25,8.13V30.89h-4.26l-.54-1.24c-1.36,1.15-3.1,1.81-5.04,1.81-5.13,0-8.79-3.73-8.79-8.93s3.66-8.91,8.79-8.91c1.54,0,2.96,.42,4.16,1.16v-6.65h5.7Zm-5.34,14.4c0-2.18-1.59-3.83-3.74-3.83s-3.74,1.64-3.74,3.83,1.59,3.83,3.74,3.83,3.74-1.64,3.74-3.83Z"/><path class="b" d="M148.34,22.26c0,.51-.04,1.02-.12,1.54h-12.58c.38,1.94,1.62,2.95,3.46,2.95,1.36,0,2.5-.6,3.06-1.59h5.81c-1.19,3.87-4.62,6.28-8.87,6.28-5.29,0-9.2-3.86-9.2-9.04s3.88-9.01,9.2-9.01,9.24,3.9,9.24,8.87h0Zm-12.6-1.69h6.85c-.51-1.69-1.73-2.61-3.49-2.61s-2.88,.92-3.36,2.61Z"/><path class="b" d="M176.98,20.27v10.63h-5.83v-9.9c0-1.77-.65-2.62-1.89-2.62-1.6,0-2.43,1.1-2.43,3.24v9.29h-5.68v-9.9c0-1.72-.65-2.62-1.87-2.62-1.58,0-2.45,1.13-2.45,3.24v9.29h-5.83V13.95h4.1l.83,1.82c1.22-1.43,3-2.32,4.95-2.32,2.07,0,3.8,.93,4.86,2.49,1.22-1.53,3.09-2.49,5.2-2.49,3.63,0,6.04,2.83,6.04,6.82Z"/><path class="b" d="M197.48,13.95l-7.1,16.19c-2.28,5.19-4.38,7.06-8.76,7.06h-2v-5.01h1.6c2.23,0,2.91-.58,3.7-2.69l-7-15.54h6.34l3.6,9.33,3.35-9.33h6.27Z"/></g><path class="b" d="M33.08,9.91v-.07c-.2,.08-.31,.27-.35,.68-.08,.89-.12,1.78-.15,2.67-.1,3.78-.22,7.56-.02,11.34,.11,2.15,.25,4.3,.9,6.37,.96,3.06,2.14,3.07,4.58,2.66,2.67-.45,2.66-.54,2.57,2.2-.05,1.55-.41,1.97-1.94,2.38-1.94,.53-3.88,.57-5.84,.17-2.16-.44-3.49-1.82-4.34-3.77-1.04-2.38-1.36-4.91-1.52-7.47-.35-5.45-.12-10.9,.4-16.33,.07-.66-.02-.99-.84-.97-3.16,.05-6.32,.04-9.48,0-.73-.01-.95,.18-.94,.93,.08,4.24-.04,8.46-.52,12.68-.48,4.16-1.1,8.29-2.63,12.23-.98,2.52-1.99,3.07-4.67,2.69-2.36-.33-2.41-.45-1.44-2.69,2.01-4.63,2.92-9.51,3.38-14.51,.31-3.44,.46-6.88,.45-10.34,0-.76-.17-1.04-.97-.99-1.3,.07-2.6,.01-3.9,.02-.42,0-.81-.04-1.09-.42-.48-.65-.5-3.36-.03-3.99,.33-.46,.8-.33,1.22-.33,5.28,0,10.56,0,15.84,0,3.78,0,7.55,.02,11.33,0,.25,0,.5,0,.75,0,.86,0,1.72,0,2.58-.02,.29,0,.58,0,.87,0l.04,.02h3.5v4.86h-7.73Z"/><path class="d" d="M44.39,7.41c-.75,.53-1.5,1.06-2.25,1.58-.95,.67-1.9,1.34-2.85,2.01-.79,.56-1.58,1.12-2.38,1.68-.02-.08,.03-.12,.06-.16,.34-.5,.67-1.01,1.01-1.51,.77-1.16,1.55-2.32,2.32-3.49,.06-.09,.05-.14,0-.23-.77-1.15-1.53-2.3-2.3-3.46-.34-.52-.69-1.04-1.04-1.56-.02-.04-.04-.08-.07-.12,0-.01,.01-.02,.02-.03,.8,.56,1.6,1.12,2.4,1.69,.37,.26,.73,.51,1.1,.77,.59,.41,1.17,.83,1.76,1.24,.74,.52,1.47,1.04,2.22,1.56Z"/></svg>