<?xml version="1.0" encoding="UTF-8"?><svg id="a" xmlns="http://www.w3.org/2000/svg" viewBox="0 0 200 48"><defs><style>.b{fill:#17357a;}.c{fill:#62d792;}</style></defs><rect class="b" x="33.92" y="8.19" width="7.67" height="4.82"/><g><path class="b" d="M64.85,17.01v16.81h-4.48l-.5-1.19c-1.38,1.12-3.12,1.76-5.07,1.76-5.14,0-8.81-3.75-8.81-8.97s3.67-8.91,8.81-8.91c1.98,0,3.75,.66,5.14,1.81l.59-1.3h4.32Zm-5.51,8.42c0-2.18-1.59-3.82-3.76-3.82s-3.76,1.64-3.76,3.82,1.59,3.83,3.76,3.83,3.76-1.64,3.76-3.83Z"/><path class="b" d="M76.82,34.39c-5.39,0-9.28-3.78-9.28-8.98s3.87-8.91,9.3-8.91c4.72,0,8.27,2.98,8.9,7.45h-5.64c-.49-1.37-1.77-2.26-3.28-2.26-2.03,0-3.48,1.55-3.48,3.74s1.47,3.77,3.48,3.77c1.55,0,2.81-.95,3.29-2.45h5.69c-.65,4.56-4.25,7.64-8.98,7.64h0Z"/><path class="b" d="M106.19,17.01v16.81h-4.48l-.5-1.19c-1.38,1.12-3.12,1.76-5.07,1.76-5.14,0-8.81-3.75-8.81-8.97s3.67-8.91,8.81-8.91c1.98,0,3.75,.66,5.14,1.81l.59-1.3h4.31Zm-5.51,8.42c0-2.18-1.59-3.82-3.76-3.82s-3.76,1.64-3.76,3.82,1.59,3.83,3.76,3.83,3.76-1.64,3.76-3.83Z"/><path class="b" d="M127.34,11.25v22.59h-4.23l-.54-1.23c-1.35,1.14-3.07,1.79-5.01,1.79-5.09,0-8.72-3.7-8.72-8.86s3.63-8.84,8.72-8.84c1.53,0,2.93,.41,4.12,1.15v-6.6h5.65Zm-5.29,14.29c0-2.17-1.57-3.8-3.71-3.8s-3.71,1.63-3.71,3.8,1.57,3.8,3.71,3.8,3.71-1.63,3.71-3.8Z"/><path class="b" d="M148.27,25.27c0,.51-.04,1.01-.12,1.53h-12.48c.38,1.93,1.6,2.93,3.43,2.93,1.35,0,2.48-.59,3.04-1.58h5.76c-1.18,3.84-4.58,6.23-8.8,6.23-5.24,0-9.13-3.83-9.13-8.97s3.85-8.94,9.13-8.94,9.17,3.87,9.17,8.8h0Zm-12.5-1.67h6.79c-.51-1.68-1.72-2.59-3.47-2.59s-2.86,.92-3.33,2.59Z"/><path class="b" d="M176.69,23.29v10.54h-5.79v-9.83c0-1.76-.65-2.6-1.88-2.6-1.59,0-2.41,1.1-2.41,3.21v9.22h-5.64v-9.83c0-1.7-.64-2.6-1.85-2.6-1.57,0-2.43,1.12-2.43,3.21v9.22h-5.79V17.03h4.07l.82,1.81c1.21-1.42,2.98-2.3,4.91-2.3,2.05,0,3.78,.92,4.82,2.47,1.21-1.52,3.07-2.47,5.16-2.47,3.6,0,5.99,2.81,5.99,6.76Z"/><path class="b" d="M197.03,17.03l-7.04,16.06c-2.27,5.14-4.35,7-8.69,7h-1.98v-4.98h1.59c2.21,0,2.88-.58,3.67-2.67l-6.95-15.42h6.29l3.57,9.26,3.32-9.26h6.22Z"/></g><path class="b" d="M41.39,38.66c-.05,1.54-.41,1.95-1.93,2.36-1.92,.52-3.85,.56-5.79,.17-2.14-.43-3.46-1.81-4.31-3.74-1.03-2.36-1.35-4.88-1.51-7.4-.35-5.41-.12-10.81,.39-16.21,.06-.65-.02-.98-.83-.97-3.14,.05-6.27,.04-9.41,0-.72,0-.95,.18-.93,.93,.08,4.2-.04,8.4-.52,12.58-.48,4.13-1.09,8.23-2.6,12.13-.97,2.5-1.98,3.05-4.63,2.68-2.34-.33-2.39-.45-1.43-2.67,1.99-4.59,2.9-9.44,3.35-14.4,.31-3.41,.45-6.83,.45-10.26,0-.76-.17-1.03-.97-.99-1.29,.07-2.58,.01-3.87,.02-.42,0-.8-.04-1.08-.41-.48-.64-.5-3.34-.03-3.96,.33-.45,.79-.32,1.21-.32,5.24,0,10.48,0,15.72,0,4.85,0,9.69,.03,14.54-.02,.29,0,.58,0,.86,0,.24,.17,.48,.34,.72,.51,.39,.27,.77,.54,1.16,.82h0c.07,.6,.11,1.22,.02,1.81-.01,.09-.03,.18-.04,.26-.63,.44-1.25,.88-1.88,1.32-.29,0-.57,0-.86,0-.92,0-1.84,.01-2.75-.01-.55-.01-.82,.05-.88,.74-.08,.88-.12,1.76-.15,2.64-.1,3.75-.21,7.51-.02,11.26,.11,2.13,.25,4.27,.89,6.31,.95,3.04,2.13,3.04,4.55,2.64,2.65-.44,2.64-.53,2.54,2.19Z"/><path class="c" d="M45.14,10.54c-.74,.52-1.49,1.05-2.23,1.57-.94,.67-1.89,1.33-2.83,2-.78,.56-1.57,1.11-2.36,1.67-.02-.08,.03-.12,.06-.16,.33-.5,.67-1,1-1.5,.76-1.16,1.54-2.31,2.31-3.46,.06-.09,.05-.14,0-.22-.76-1.14-1.52-2.28-2.29-3.43-.34-.51-.68-1.03-1.03-1.55-.02-.04-.04-.08-.07-.12,0-.01,.01-.02,.02-.03,.79,.56,1.59,1.11,2.38,1.68,.36,.25,.73,.51,1.09,.77,.58,.41,1.16,.82,1.74,1.23,.73,.51,1.46,1.03,2.2,1.55Z"/></svg>